<svg width="294" height="80" viewBox="0 0 294 80" fill="none" xmlns="http://www.w3.org/2000/svg">
<g clip-path="url(#clip0_1530_631)">
<path d="M65.6702 48.1381L63.8895 45.0726C61.9157 42.3366 59.3227 40.1043 56.3214 38.5573C59.8227 36.3394 62.5178 33.0577 64.0098 29.1957C64.6371 27.7339 65.0124 26.1767 65.1198 24.59L65.1468 24.644C65.2771 23.6576 65.3414 22.6636 65.3393 21.6686C65.3393 8.55996 55.5453 0 40.4092 0H4.85187C3.56507 0 2.33098 0.510236 1.42108 1.41846C0.511178 2.32669 0 3.55851 0 4.84293L0 75.1571C0 76.4415 0.511178 77.6733 1.42108 78.5815C2.33098 79.4898 3.56507 80 4.85187 80H41.5101C57.3201 80 67.5592 70.9927 67.5592 57.1124C67.5928 54.0193 66.9481 50.9562 65.6702 48.1381ZM40.9807 27.4213C35.7198 27.4213 31.4514 24.4999 31.4514 20.894C31.4514 17.288 35.7198 14.3667 40.9807 14.3667C46.2417 14.3667 50.51 17.288 50.51 20.894C50.51 24.4999 46.2447 27.4213 40.9807 27.4213Z" fill="white"/>
<path d="M121.545 79.9313C120.71 79.9313 120.292 79.9313 119.939 79.7431C119.586 79.5549 119.354 79.208 118.888 78.5143L102.459 54.0306C100.067 50.4647 98.8702 48.6818 97.7362 49.027C96.6021 49.3722 96.6021 51.5194 96.6021 55.8136V76.7313C96.6021 78.2397 96.6021 78.994 96.1335 79.4626C95.6649 79.9313 94.9106 79.9313 93.4021 79.9313H74.7605C73.2521 79.9313 72.4978 79.9313 72.0292 79.4626C71.5605 78.994 71.5605 78.2397 71.5605 76.7313V3.26885C71.5605 1.76035 71.5605 1.00611 72.0292 0.537477C72.4978 0.0688477 73.2521 0.0688477 74.7605 0.0688477H93.4022C94.9106 0.0688477 95.6649 0.0688477 96.1335 0.537477C96.6021 1.00611 96.6021 1.76035 96.6021 3.26885V23.3018C96.6021 27.5497 96.6021 29.6736 97.7308 30.0215C98.8595 30.3694 100.055 28.6141 102.447 25.1034L118.548 1.46727C119.014 0.782408 119.248 0.439975 119.599 0.254411C119.95 0.0688477 120.364 0.0688477 121.193 0.0688477H141.567C144.301 0.0688477 145.668 0.0688477 146.114 0.939292C146.56 1.80974 145.762 2.91923 144.165 5.13822L121.621 36.4584C120.978 37.3517 120.657 37.7984 120.654 38.3099C120.652 38.8214 120.969 39.2712 121.603 40.171L146.065 74.8881C147.623 77.0991 148.402 78.2047 147.954 79.068C147.506 79.9313 146.154 79.9313 143.449 79.9313H121.545Z" fill="white"/>
<path d="M180.86 20.0344C179.351 20.0344 178.597 20.0344 178.128 20.5031C177.66 20.9717 177.66 21.726 177.66 23.2344V26.648C177.66 28.1565 177.66 28.9108 178.128 29.3794C178.597 29.848 179.351 29.848 180.86 29.848H199.276C200.784 29.848 201.539 29.848 202.007 30.3167C202.476 30.7853 202.476 31.5396 202.476 33.048V45.4856C202.476 46.9941 202.476 47.7484 202.007 48.217C201.539 48.6856 200.784 48.6856 199.276 48.6856H180.86C179.351 48.6856 178.597 48.6856 178.128 49.1543C177.66 49.6229 177.66 50.3772 177.66 51.8856V56.7656C177.66 58.2741 177.66 59.0284 178.128 59.497C178.597 59.9656 179.351 59.9656 180.86 59.9656H202.66C204.168 59.9656 204.923 59.9656 205.391 60.4343C205.86 60.9029 205.86 61.6572 205.86 63.1656V76.7312C205.86 78.2397 205.86 78.994 205.391 79.4626C204.923 79.9313 204.168 79.9313 202.66 79.9313H155.818C154.31 79.9313 153.555 79.9313 153.087 79.4626C152.618 78.994 152.618 78.2397 152.618 76.7313V3.26885C152.618 1.76035 152.618 1.00611 153.087 0.537477C153.555 0.0688477 154.31 0.0688477 155.818 0.0688477H202.66C204.168 0.0688477 204.923 0.0688477 205.391 0.537477C205.86 1.00611 205.86 1.76035 205.86 3.26885V16.8344C205.86 18.3429 205.86 19.0972 205.391 19.5658C204.923 20.0344 204.168 20.0344 202.66 20.0344H180.86Z" fill="white"/>
<path d="M287.955 0.0688477C290.304 0.0688477 291.478 0.0688477 291.946 0.835925C292.413 1.603 291.876 2.64682 290.8 4.73445L264.908 54.9895C264.731 55.3327 264.643 55.5044 264.598 55.6902C264.553 55.876 264.553 56.069 264.553 56.4551V76.7313C264.553 78.2397 264.553 78.994 264.084 79.4626C263.615 79.9313 262.861 79.9313 261.353 79.9313H242.711C241.203 79.9313 240.448 79.9313 239.98 79.4626C239.511 78.994 239.511 78.2397 239.511 76.7313V56.4551C239.511 56.069 239.511 55.876 239.466 55.6902C239.421 55.5044 239.333 55.3327 239.156 54.9895L213.264 4.73445C212.188 2.64682 211.65 1.603 212.118 0.835925C212.586 0.0688477 213.76 0.0688477 216.108 0.0688477H237.442C238.447 0.0688477 238.949 0.0688477 239.345 0.325174C239.742 0.581499 239.948 1.0394 240.36 1.9552L249.34 21.9002C250.595 24.6895 251.223 26.0841 252.257 26.0841C253.292 26.0841 253.92 24.6895 255.175 21.9002L264.155 1.95519C264.567 1.0394 264.773 0.581499 265.17 0.325174C265.566 0.0688477 266.068 0.0688477 267.073 0.0688477H287.955Z" fill="white"/>
</g>
<defs>
<clipPath id="clip0_1530_631">
<rect width="293.204" height="80" fill="white"/>
</clipPath>
</defs>
</svg>
