<svg width="500" height="500" viewBox="0 0 500 500" fill="none" xmlns="http://www.w3.org/2000/svg">
<rect width="500" height="500" fill="#1C0C1C"/>
<path d="M168.67 258.138L166.889 255.073C164.916 252.337 162.323 250.104 159.321 248.557C162.823 246.339 165.518 243.058 167.01 239.196C167.637 237.734 168.012 236.177 168.12 234.59L168.147 234.644C168.277 233.658 168.341 232.664 168.339 231.669C168.339 218.56 158.545 210 143.409 210H107.852C106.565 210 105.331 210.51 104.421 211.418C103.511 212.327 103 213.559 103 214.843V285.157C103 286.441 103.511 287.673 104.421 288.582C105.331 289.49 106.565 290 107.852 290H144.51C160.32 290 170.559 280.993 170.559 267.112C170.593 264.019 169.948 260.956 168.67 258.138ZM143.981 237.421C138.72 237.421 134.451 234.5 134.451 230.894C134.451 227.288 138.72 224.367 143.981 224.367C149.242 224.367 153.51 227.288 153.51 230.894C153.51 234.5 149.245 237.421 143.981 237.421Z" fill="white"/>
<path d="M224.545 289.931C223.71 289.931 223.292 289.931 222.939 289.743C222.586 289.555 222.354 289.208 221.888 288.514L205.459 264.031C203.067 260.465 201.87 258.682 200.736 259.027C199.602 259.372 199.602 261.519 199.602 265.814V286.731C199.602 288.24 199.602 288.994 199.134 289.463C198.665 289.931 197.911 289.931 196.402 289.931H177.761C176.252 289.931 175.498 289.931 175.029 289.463C174.561 288.994 174.561 288.24 174.561 286.731V213.269C174.561 211.76 174.561 211.006 175.029 210.537C175.498 210.069 176.252 210.069 177.761 210.069H196.402C197.911 210.069 198.665 210.069 199.134 210.537C199.602 211.006 199.602 211.76 199.602 213.269V233.302C199.602 237.55 199.602 239.674 200.731 240.022C201.86 240.369 203.055 238.614 205.447 235.103L221.548 211.467C222.014 210.782 222.248 210.44 222.599 210.254C222.95 210.069 223.364 210.069 224.193 210.069H244.567C247.301 210.069 248.668 210.069 249.114 210.939C249.56 211.81 248.762 212.919 247.165 215.138L224.621 246.458C223.978 247.352 223.657 247.798 223.654 248.31C223.652 248.821 223.969 249.271 224.603 250.171L249.065 284.888C250.623 287.099 251.402 288.205 250.954 289.068C250.506 289.931 249.154 289.931 246.449 289.931H224.545Z" fill="white"/>
<path d="M283.86 230.034C282.351 230.034 281.597 230.034 281.128 230.503C280.66 230.972 280.66 231.726 280.66 233.234V236.648C280.66 238.157 280.66 238.911 281.128 239.379C281.597 239.848 282.351 239.848 283.86 239.848H302.276C303.784 239.848 304.539 239.848 305.007 240.317C305.476 240.785 305.476 241.54 305.476 243.048V255.486C305.476 256.994 305.476 257.748 305.007 258.217C304.539 258.686 303.784 258.686 302.276 258.686H283.86C282.351 258.686 281.597 258.686 281.128 259.154C280.66 259.623 280.66 260.377 280.66 261.886V266.766C280.66 268.274 280.66 269.028 281.128 269.497C281.597 269.966 282.351 269.966 283.86 269.966H305.66C307.168 269.966 307.923 269.966 308.391 270.434C308.86 270.903 308.86 271.657 308.86 273.166V286.731C308.86 288.24 308.86 288.994 308.391 289.463C307.923 289.931 307.168 289.931 305.66 289.931H258.818C257.31 289.931 256.555 289.931 256.087 289.463C255.618 288.994 255.618 288.24 255.618 286.731V213.269C255.618 211.76 255.618 211.006 256.087 210.537C256.555 210.069 257.31 210.069 258.818 210.069H305.66C307.168 210.069 307.923 210.069 308.391 210.537C308.86 211.006 308.86 211.76 308.86 213.269V226.834C308.86 228.343 308.86 229.097 308.391 229.566C307.923 230.034 307.168 230.034 305.66 230.034H283.86Z" fill="white"/>
<path d="M390.955 210.069C393.304 210.069 394.478 210.069 394.946 210.836C395.413 211.603 394.876 212.647 393.8 214.734L367.908 264.99C367.731 265.333 367.643 265.504 367.598 265.69C367.553 265.876 367.553 266.069 367.553 266.455V286.731C367.553 288.24 367.553 288.994 367.084 289.463C366.615 289.931 365.861 289.931 364.353 289.931H345.711C344.203 289.931 343.448 289.931 342.98 289.463C342.511 288.994 342.511 288.24 342.511 286.731V266.455C342.511 266.069 342.511 265.876 342.466 265.69C342.421 265.504 342.333 265.333 342.156 264.99L316.264 214.734C315.188 212.647 314.65 211.603 315.118 210.836C315.586 210.069 316.76 210.069 319.108 210.069H340.442C341.447 210.069 341.949 210.069 342.345 210.325C342.742 210.581 342.948 211.039 343.36 211.955L352.34 231.9C353.595 234.689 354.223 236.084 355.257 236.084C356.292 236.084 356.92 234.689 358.175 231.9L367.155 211.955C367.567 211.039 367.773 210.581 368.17 210.325C368.566 210.069 369.068 210.069 370.073 210.069H390.955Z" fill="white"/>
</svg>
